<?xml version="1.0" standalone="no"?>
<!DOCTYPE svg PUBLIC "-//W3C//DTD SVG 20010904//EN"
 "http://www.w3.org/TR/2001/REC-SVG-20010904/DTD/svg10.dtd">
<svg version="1.0" xmlns="http://www.w3.org/2000/svg"
 width="600.000000pt" height="479.000000pt" viewBox="0 0 600.000000 479.000000"
 preserveAspectRatio="xMidYMid meet">

<g transform="translate(0.000000,479.000000) scale(0.100000,-0.100000)"
fill="#000000" stroke="none">
<path d="M4425 4426 c-68 -17 -92 -30 -147 -84 -44 -42 -52 -46 -108 -50 -53
-4 -60 -2 -54 12 8 22 3 21 -66 -14 -73 -37 -140 -50 -140 -27 0 9 5 19 10 22
6 3 10 13 10 21 0 13 -10 14 -52 9 -53 -6 -72 -1 -79 22 -5 17 -126 -43 -175
-86 -54 -48 -95 -43 -187 21 -15 11 -23 7 -62 -34 -34 -37 -52 -48 -74 -48
-16 0 -33 -4 -36 -10 -3 -5 -25 -10 -49 -10 -34 0 -55 -9 -106 -45 -36 -25
-81 -48 -101 -51 -24 -4 -49 -18 -70 -40 -18 -19 -41 -34 -51 -34 -10 0 -38
-5 -63 -12 -39 -11 -49 -10 -74 5 -39 23 -41 22 -41 -13 0 -31 -8 -37 -26 -21
-5 5 -29 11 -54 13 -44 3 -45 3 -54 -34 -7 -26 -15 -38 -27 -38 -10 0 -20 -9
-24 -19 -8 -25 -57 -44 -93 -36 -31 6 -105 -28 -178 -82 -17 -13 -36 -23 -42
-23 -19 0 -44 -47 -37 -69 10 -32 -16 -37 -40 -7 -22 27 -23 28 -48 11 -14 -9
-33 -33 -41 -53 -33 -75 -42 -87 -81 -109 -22 -13 -52 -23 -67 -23 -17 0 -31
-8 -38 -21 -7 -12 -18 -18 -26 -15 -9 3 -14 -1 -14 -14 0 -10 -16 -32 -37 -47
-20 -15 -64 -55 -97 -89 -35 -34 -95 -79 -140 -103 -75 -42 -81 -43 -139 -37
-53 5 -64 3 -91 -18 -17 -13 -42 -27 -56 -31 -13 -4 -45 -27 -70 -51 -125
-118 -140 -128 -248 -173 -37 -15 -98 -51 -136 -80 -38 -30 -85 -58 -105 -63
-20 -5 -58 -15 -85 -22 -55 -13 -166 -99 -166 -128 0 -10 5 -38 12 -63 11 -39
10 -47 -5 -62 -15 -15 -15 -18 6 -39 42 -44 62 -69 73 -89 7 -15 19 -20 47
-19 52 2 42 -17 -19 -37 -29 -9 -50 -22 -52 -32 -4 -21 6 -22 29 -1 17 15 20
14 48 -6 35 -24 35 -24 21 -51 -13 -24 8 -26 50 -4 27 14 35 26 31 48 -1 4 10
12 23 18 45 21 87 -26 54 -59 -16 -16 -9 -20 34 -15 25 4 38 11 41 24 4 14 14
19 41 19 30 0 39 -6 66 -45 17 -24 40 -51 51 -59 26 -18 18 -32 -20 -41 -50
-11 -69 -52 -40 -86 10 -12 19 -26 19 -31 0 -4 9 -8 20 -8 18 0 20 -7 20 -65
l0 -65 35 0 c29 0 39 -6 52 -27 16 -28 71 -63 98 -63 11 0 15 12 15 44 0 36 6
50 29 74 30 29 51 85 51 134 0 17 8 31 21 38 18 10 19 13 6 23 -24 19 -3 55
40 74 21 8 69 17 106 19 68 3 127 30 127 57 0 6 10 21 22 34 l21 23 43 -25 43
-25 15 22 c8 13 18 40 21 60 6 29 11 36 28 36 65 -2 211 -69 246 -114 10 -13
24 -24 30 -24 6 0 11 -7 11 -15 0 -16 75 -75 95 -75 18 0 90 -81 114 -129 22
-42 27 -81 11 -81 -13 0 -55 -44 -76 -79 -10 -16 -28 -35 -41 -42 -13 -7 -23
-17 -23 -23 1 -10 22 -54 66 -136 25 -47 23 -112 -6 -187 l-25 -63 23 -43 c12
-23 46 -70 76 -103 29 -34 65 -82 80 -108 26 -44 29 -46 73 -46 36 0 52 -6 80
-30 40 -36 54 -37 93 -8 27 20 33 20 99 10 38 -7 86 -12 105 -12 24 0 54 -12
92 -36 l57 -36 37 21 c41 23 84 27 126 11 18 -7 30 -7 39 0 17 14 49 -4 66
-37 7 -13 23 -26 35 -29 12 -3 25 -13 28 -22 3 -10 15 -31 25 -49 16 -26 18
-38 10 -67 -5 -19 -14 -38 -19 -41 -16 -10 -11 -55 6 -62 9 -3 25 -1 35 5 15
10 20 8 29 -8 6 -11 17 -20 25 -20 25 0 48 -46 40 -79 -5 -25 -2 -35 19 -54
14 -14 26 -31 26 -38 0 -8 13 -21 29 -30 18 -11 31 -28 36 -47 9 -43 27 -54
71 -46 30 6 62 31 166 130 79 77 135 124 148 124 11 0 37 7 56 15 29 12 34 18
29 36 -7 20 -5 20 72 14 l78 -6 43 39 c39 37 57 82 31 82 -5 0 -7 5 -4 10 3 6
28 10 56 10 27 0 49 4 49 8 0 5 6 17 14 27 12 17 15 17 36 2 31 -21 63 -6 55
26 -5 18 0 24 25 34 16 6 30 18 30 27 0 9 5 15 11 13 7 -1 22 24 35 56 12 32
39 80 58 107 25 35 32 50 21 50 -19 0 -19 0 1 39 18 36 34 32 34 -9 0 -16 4
-32 10 -35 10 -6 11 -5 34 143 14 90 49 196 86 264 6 10 10 22 10 28 0 13 34
62 76 111 17 20 33 41 35 46 2 5 30 26 62 46 36 24 57 44 57 56 0 13 17 26 61
45 33 14 66 26 73 26 15 0 42 46 51 88 7 35 30 52 69 52 13 0 37 5 52 10 l28
11 -32 19 c-45 28 -59 62 -43 103 7 18 20 55 28 82 18 57 71 134 93 134 8 0
26 -6 40 -14 54 -31 99 -10 100 48 0 48 17 69 53 65 l31 -3 4 60 c1 33 3 70 3
83 1 12 5 22 11 22 6 0 7 13 3 31 -11 47 19 106 62 121 50 18 42 49 -16 63
-25 6 -46 16 -49 23 -2 7 6 28 17 48 27 45 26 60 -1 68 -51 13 -78 7 -90 -21
-12 -27 -12 -27 -18 21 -5 46 -8 51 -36 58 -19 5 -41 22 -55 42 -19 28 -32 36
-68 41 -40 6 -55 16 -123 86 -42 43 -83 79 -90 79 -31 0 -58 -40 -58 -85 0
-35 -5 -47 -27 -64 -14 -12 -38 -24 -52 -27 -14 -4 -76 -31 -138 -60 -62 -30
-123 -54 -136 -54 -14 0 -30 -7 -37 -15 -7 -8 -29 -15 -49 -15 -20 0 -42 -5
-49 -12 -9 -9 -12 -8 -12 5 0 10 -7 20 -15 23 -11 5 -12 11 -4 25 8 15 6 21
-8 26 -59 20 -84 34 -89 48 -3 8 -13 15 -21 15 -9 0 -33 15 -53 33 -21 17 -60
48 -87 67 -83 60 -149 134 -182 202 -39 82 -44 184 -11 247 28 56 74 69 90 26
9 -23 12 -24 77 -18 84 7 110 20 162 79 47 53 49 60 21 67 -40 10 -14 101 37
128 29 15 29 26 2 34 -16 5 -28 0 -44 -17 -13 -14 -54 -37 -91 -52 -38 -16
-82 -35 -97 -43 -16 -9 -39 -12 -53 -9 -24 6 -107 -16 -130 -35 -31 -25 -89
36 -118 124 -22 65 -20 113 4 137 11 11 20 27 20 35 0 19 28 31 45 19 7 -5 27
-20 44 -32 l32 -24 -7 26 c-5 20 -2 26 9 26 21 0 86 42 87 56 1 28 27 34 72
18 l44 -17 69 42 c38 22 75 41 82 41 7 0 13 5 13 11 0 6 8 8 19 4 27 -8 45 2
80 45 l31 39 -58 -3 c-31 -2 -67 -8 -79 -14 -36 -20 -45 -15 -38 18 7 33 9 33
-60 16z"/>
<path d="M4640 3049 c0 -5 5 -7 10 -4 6 3 10 8 10 11 0 2 -4 4 -10 4 -5 0 -10
-5 -10 -11z"/>
<path d="M355 2625 c-36 -18 -105 -80 -105 -94 0 -27 46 -4 114 56 53 48 49
66 -9 38z"/>
<path d="M1782 2311 c2 -7 7 -12 11 -12 12 1 9 15 -3 20 -7 2 -11 -2 -8 -8z"/>
</g>
</svg>
