<?xml version="1.0" standalone="no"?>
<!DOCTYPE svg PUBLIC "-//W3C//DTD SVG 20010904//EN"
 "http://www.w3.org/TR/2001/REC-SVG-20010904/DTD/svg10.dtd">
<svg version="1.0" xmlns="http://www.w3.org/2000/svg"
 width="900.000000pt" height="1600.000000pt" viewBox="0 0 900.000000 1600.000000"
 preserveAspectRatio="xMidYMid meet">

<g transform="translate(0.000000,1600.000000) scale(0.100000,-0.100000)"
fill="#000000" stroke="none">
<path d="M4425 15900 l-45 -90 0 -777 0 -778 -41 -39 c-23 -21 -50 -59 -61
-84 -19 -42 -20 -60 -15 -177 10 -220 -12 -579 -49 -820 -43 -280 -142 -731
-169 -775 -3 -6 -48 -10 -101 -10 l-94 0 0 -340 0 -340 -215 0 -215 0 0 -340
0 -340 -130 0 -130 0 0 -4085 0 -4085 -185 0 -185 0 0 -650 0 -650 -190 0
-190 0 0 -760 0 -760 2090 0 2090 0 0 1005 0 1005 -215 0 -215 0 0 405 0 405
-170 0 -170 0 0 4085 0 4085 -140 0 -140 0 0 340 0 340 -200 0 -200 0 0 340 0
340 -99 0 -99 0 -20 68 c-64 211 -146 635 -178 917 -16 142 -23 493 -13 695 3
62 0 82 -18 116 -24 45 -89 108 -122 119 l-21 6 0 767 0 767 -41 93 c-23 50
-46 92 -50 92 -5 0 -29 -40 -54 -90z"/>
</g>
</svg>
