<?xml version="1.0" standalone="no"?>
<!DOCTYPE svg PUBLIC "-//W3C//DTD SVG 20010904//EN"
 "http://www.w3.org/TR/2001/REC-SVG-20010904/DTD/svg10.dtd">
<svg version="1.0" xmlns="http://www.w3.org/2000/svg"
 width="900.000000pt" height="600.000000pt" viewBox="0 0 900.000000 600.000000"
 preserveAspectRatio="xMidYMid meet">

<g transform="translate(0.000000,600.000000) scale(0.100000,-0.100000)"
fill="#000000" stroke="none">
<path d="M4390 4024 c-19 -2 -80 -9 -135 -15 -162 -16 -500 -66 -637 -94 -326
-64 -719 -198 -1233 -417 -231 -99 -440 -189 -465 -200 -98 -45 -128 -56 -146
-55 -17 2 -19 -6 -19 -68 0 -64 -2 -70 -21 -73 -21 -3 -22 2 -28 85 -6 98 -27
238 -38 248 -4 4 -4 13 -2 20 5 13 -55 25 -122 25 -18 0 -37 6 -41 14 -5 9
-37 16 -95 21 -79 7 -88 6 -88 -10 0 -9 -9 -19 -19 -22 -21 -5 -31 -31 -31
-84 0 -20 -7 -42 -15 -49 -13 -11 -15 -72 -15 -436 l0 -424 129 0 c76 0 132 4
136 10 4 6 60 10 136 10 l129 0 0 35 0 35 48 0 c44 0 53 5 152 86 168 136 317
246 431 318 l107 66 278 10 c845 30 2838 47 3484 31 l455 -12 60 -36 c104 -64
222 -150 446 -324 l217 -169 116 0 c66 0 117 -4 121 -10 4 -6 56 -10 125 -10
95 0 119 3 124 15 3 8 4 192 3 408 -1 293 -5 398 -14 409 -7 8 -15 40 -19 72
-5 45 -11 60 -26 64 -10 2 -18 11 -18 18 0 11 -20 14 -90 14 -70 0 -90 -3 -90
-14 0 -10 -22 -15 -80 -20 -48 -5 -78 -11 -74 -17 3 -5 1 -15 -4 -22 -11 -14
-19 -77 -28 -224 -6 -93 -8 -103 -25 -103 -18 0 -19 7 -16 74 l3 74 -61 18
c-33 9 -190 73 -350 142 -529 227 -626 263 -970 361 -387 110 -573 152 -775
175 -288 33 -811 62 -910 50z m318 -20 c162 -12 88 -23 -146 -22 -194 1 -256
-3 -427 -26 -446 -60 -618 -95 -949 -196 -101 -31 -172 -48 -178 -42 -16 16
391 136 622 182 160 32 436 73 630 94 141 16 313 19 448 10z m215 -14 c43 0
57 -3 54 -12 -2 -7 -13 -12 -23 -11 -10 1 -47 3 -81 4 -35 1 -63 5 -63 9 0 14
15 21 35 16 11 -3 46 -6 78 -6z m402 -36 c130 -16 434 -80 449 -95 22 -21 -9
-17 -145 16 -162 40 -490 85 -617 85 -15 0 -21 4 -16 11 8 13 137 7 329 -17z
m-915 6 c-8 -5 -40 -9 -70 -8 l-55 1 55 7 c91 11 87 11 70 0z m178 3 c-21 -2
-55 -2 -75 0 -21 2 -4 4 37 4 41 0 58 -2 38 -4z m177 -8 c6 -2 -20 -4 -57 -4
-38 -1 -68 3 -68 7 0 8 101 5 125 -3z m-566 -19 c-8 -6 -112 -15 -105 -9 4 4
28 10 54 13 45 6 60 4 51 -4z m729 7 c-15 -2 -42 -2 -60 0 -18 2 -6 4 27 4 33
0 48 -2 33 -4z m-518 -70 c0 -40 -4 -63 -9 -57 -5 5 -28 32 -52 59 l-42 50 39
6 c21 3 45 7 52 8 8 1 12 -18 12 -66z m84 5 c30 -34 53 -66 50 -70 -3 -4 -32
-8 -65 -8 l-59 0 0 70 c0 39 4 70 9 70 5 0 34 -28 65 -62z m36 1 c29 -33 50
-62 48 -65 -3 -2 -31 25 -62 61 -32 36 -53 65 -48 65 5 0 33 -27 62 -61z m80
-6 l0 -68 -25 30 c-14 17 -39 47 -56 68 l-31 37 56 0 56 0 0 -67z m92 59 l38
-7 -48 -57 c-26 -31 -50 -57 -54 -57 -5 -1 -8 28 -8 64 0 72 -1 71 72 57z
m428 -2 c20 -6 21 -8 5 -8 -11 -1 -38 3 -60 7 l-40 9 35 0 c19 0 46 -4 60 -8z
m-788 -68 c26 -31 44 -59 41 -62 -5 -5 -112 110 -113 122 0 17 28 -7 72 -60z
m387 8 c-29 -33 -54 -58 -57 -56 -6 6 89 116 101 116 4 0 -15 -27 -44 -60z
m101 -9 l0 -57 -43 -2 c-24 -2 -53 1 -65 5 -20 8 -19 11 29 65 62 71 79 69 79
-11z m97 55 c1 -1 -18 -24 -42 -51 l-44 -50 -1 57 0 56 43 -5 c23 -3 43 -6 44
-7z m-942 -5 c-30 -12 -121 -24 -112 -15 7 8 74 21 112 22 l20 1 -20 -8z m215
-52 l0 -61 -45 49 c-24 26 -44 51 -45 55 0 4 17 9 38 11 20 2 40 4 45 5 4 1 7
-25 7 -59z m100 1 c57 -66 56 -67 -28 -72 l-52 -3 0 68 c0 85 11 86 80 7z
m614 -4 c-26 -31 -52 -56 -57 -56 -5 0 15 27 43 60 29 34 55 59 57 56 3 -3
-16 -30 -43 -60z m86 -1 l0 -65 -32 1 c-18 1 -44 4 -57 8 -23 6 -22 8 29 64
28 31 54 57 56 57 2 0 4 -29 4 -65z m345 56 l40 -9 -35 0 c-19 0 -55 3 -80 7
l-45 8 40 1 c22 1 58 -3 80 -7z m-315 -61 c0 -33 -4 -60 -10 -60 -6 0 -10 27
-10 60 0 33 4 60 10 60 6 0 10 -27 10 -60z m90 50 c0 -6 -18 -30 -40 -53 l-39
-42 -1 53 0 52 40 0 c22 0 40 -5 40 -10z m-1021 -59 c28 -33 48 -62 44 -64 -5
-3 -34 -8 -65 -11 l-58 -7 0 70 c0 89 10 91 79 12z m43 1 c45 -54 56 -79 23
-52 -33 28 -96 110 -83 109 7 0 34 -26 60 -57z m979 9 c-46 -55 -81 -87 -65
-60 16 27 89 108 97 109 5 0 -9 -22 -32 -49z m79 -16 c0 -65 0 -65 -29 -65
-16 0 -42 3 -59 6 l-31 6 51 59 c28 33 55 59 59 59 5 0 9 -29 9 -65z m146 43
c12 -13 -87 -113 -112 -114 -23 -1 -24 2 -24 65 l0 66 64 -5 c36 -3 68 -8 72
-12z m144 12 c85 -19 92 -21 88 -25 -2 -2 -44 4 -93 15 -50 10 -79 19 -65 19
14 0 45 -4 70 -9z m-1705 -9 c-6 -5 -35 -12 -65 -15 -62 -6 -57 0 11 13 62 12
64 12 54 2z m215 -62 l0 -70 -54 63 -55 63 32 6 c78 15 77 17 77 -62z m1416
51 c11 0 14 -17 14 -75 l0 -74 -32 6 c-18 3 -54 11 -80 17 l-47 11 52 62 c30
37 58 61 65 58 8 -3 20 -5 28 -5z m-1496 -102 l21 -27 -38 -10 c-79 -22 -83
-19 -83 57 0 38 3 72 7 76 7 7 49 -37 93 -96z m4 46 c27 -30 45 -58 42 -61 -6
-6 -61 53 -94 99 -29 40 7 14 52 -38z m1599 40 c20 -4 37 -9 37 -13 0 -11
-101 -121 -111 -121 -5 0 -9 34 -9 76 0 74 1 76 23 70 12 -3 39 -9 60 -12z
m-1733 -61 c0 -36 -2 -64 -4 -62 -45 50 -86 102 -86 109 0 5 15 11 33 13 17 2
38 5 45 5 8 2 12 -17 12 -65z m17 -45 c-2 -24 -4 -7 -4 37 0 44 2 63 4 43 2
-21 2 -57 0 -80z m1826 105 c-7 -2 -19 -2 -25 0 -7 3 -2 5 12 5 14 0 19 -2 13
-5z m207 -19 c0 -10 -6 -11 -22 -5 -31 11 -34 29 -3 24 14 -3 25 -11 25 -19z
m-2285 1 c-57 -18 -111 -29 -103 -20 9 9 98 33 123 33 11 0 2 -6 -20 -13z
m2189 -6 c21 -6 36 -12 34 -14 -5 -5 -121 25 -128 32 -5 6 23 0 94 -18z
m-2053 -8 c8 -11 34 -42 57 -70 24 -28 38 -51 30 -50 -12 0 -118 119 -118 133
0 13 18 5 31 -13z m1899 -62 c0 -72 -2 -80 -17 -75 -10 3 -37 10 -61 16 l-42
11 57 64 c31 36 58 65 60 65 2 0 3 -36 3 -81z m383 50 c37 -11 67 -24 67 -29
0 -12 7 -13 -80 10 -110 30 -110 30 -110 42 0 11 17 8 123 -23z m-2366 -116
c-2 -27 -3 -5 -3 47 0 52 1 74 3 48 2 -27 2 -69 0 -95z m88 70 l57 -67 -33
-11 c-19 -7 -46 -15 -61 -19 l-28 -6 0 85 c0 47 2 85 4 85 2 0 29 -30 61 -67z
m1945 -14 c0 -71 -2 -80 -17 -77 -15 3 -18 16 -21 81 -3 72 -1 77 18 77 18 0
20 -6 20 -81z m-2050 -15 l0 -85 -61 71 c-34 39 -60 73 -57 75 5 6 77 23 101
24 15 1 17 -9 17 -85z m2126 75 c24 -6 44 -15 44 -19 0 -4 -25 -33 -55 -66
l-54 -59 -1 78 c0 48 4 77 11 77 5 0 30 -5 55 -11z m117 -6 c-7 -2 -19 -2 -25
0 -7 3 -2 5 12 5 14 0 19 -2 13 -5z m-2458 -11 c-6 -5 -30 -14 -55 -21 -25 -7
-54 -15 -65 -18 -11 -3 -16 -2 -12 3 5 5 34 17 65 26 67 19 80 21 67 10z
m2562 -13 c43 -12 85 -25 93 -31 10 -6 7 -7 -10 -2 -14 4 -56 15 -93 25 -38
10 -71 20 -75 23 -9 9 3 7 85 -15z m-2427 -59 c35 -39 60 -74 56 -78 -4 -3
-36 -16 -72 -28 l-64 -22 0 99 c0 54 4 99 9 99 5 0 37 -32 71 -70z m2330 -31
c0 -87 0 -88 -22 -80 -21 8 -23 16 -26 93 l-3 85 26 -4 c25 -5 25 -7 25 -94z
m-2430 -10 c0 -64 -4 -98 -10 -94 -11 7 -14 178 -3 188 12 13 13 7 13 -94z
m1210 82 c0 -15 -11 -19 -61 -25 -34 -3 -79 -6 -100 -6 -35 0 -39 3 -39 25 l0
25 100 0 c91 0 100 -2 100 -19z m190 -6 c0 -22 -4 -25 -37 -25 -21 0 -62 3
-90 6 -43 6 -53 10 -53 25 0 17 9 19 90 19 89 0 90 0 90 -25z m970 -54 l0 -79
-50 16 c-27 9 -50 20 -50 25 0 7 91 117 98 117 1 0 2 -36 2 -79z m462 30 c216
-65 321 -104 326 -121 3 -9 0 -11 -14 -5 -45 18 -229 79 -354 116 -128 39
-175 59 -137 59 9 0 90 -22 179 -49z m-2862 -48 c0 -85 -1 -87 -18 -67 -9 12
-36 44 -59 72 l-43 50 53 15 c28 8 55 16 60 16 4 1 7 -38 7 -86z m1030 67 c0
-14 -7 -20 -22 -21 -13 0 -56 -4 -95 -8 -57 -5 -73 -4 -73 6 0 7 0 16 0 21 -1
10 54 19 128 21 56 1 62 -1 62 -19z m417 -2 c-3 -8 -6 -5 -6 6 -1 11 2 17 5
13 3 -3 4 -12 1 -19z m157 16 c9 -3 16 -15 16 -25 0 -21 -7 -22 -99 -13 -50 6
-61 10 -61 25 0 17 8 19 64 19 35 0 71 -3 80 -6z m954 -15 c27 -11 25 -15 -40
-90 l-48 -54 0 83 0 84 33 -7 c17 -4 42 -11 55 -16z m-1738 -12 c0 -22 -6 -25
-77 -35 -101 -16 -103 -15 -103 8 0 20 11 24 122 40 29 4 54 8 56 9 1 0 2 -9
2 -22z m830 3 c0 -11 -4 -20 -10 -20 -5 0 -10 9 -10 20 0 11 5 20 10 20 6 0
10 -9 10 -20z m130 4 c33 -5 40 -10 40 -28 0 -21 -2 -21 -80 -12 -75 9 -80 11
-80 34 0 22 3 23 40 18 22 -3 58 -9 80 -12z m-1950 -4 c-20 -13 -33 -13 -25 0
3 6 14 10 23 10 15 0 15 -2 2 -10z m-45 -9 c-13 -11 -105 -41 -124 -40 -9 0
13 11 49 24 72 26 89 30 75 16z m2067 -5 c5 3 52 -2 104 -11 87 -17 94 -20 94
-42 0 -19 -4 -22 -22 -18 -63 14 -174 37 -185 38 -7 0 -13 12 -12 26 0 14 3
20 6 13 2 -6 9 -9 15 -6z m1011 -36 c172 -52 306 -98 320 -110 4 -4 -72 19
-170 51 -98 32 -214 69 -258 83 -44 13 -75 24 -69 25 6 1 86 -22 177 -49z
m-2937 -30 c33 -39 60 -75 62 -79 2 -7 -116 -61 -133 -61 -3 0 -5 47 -5 105 0
58 4 105 9 105 4 0 35 -32 67 -70z m692 25 c-2 -2 -40 -12 -86 -23 -72 -17
-84 -17 -89 -5 -9 23 10 34 93 52 77 17 79 17 82 -2 2 -10 2 -20 0 -22z m1980
-89 l-3 -43 -56 21 -57 21 57 67 56 67 3 -45 c2 -24 2 -64 0 -88z m46 128 c13
-5 16 -24 16 -100 0 -52 -3 -94 -6 -94 -3 0 -14 5 -25 10 -17 9 -19 22 -19
100 0 89 3 96 34 84z m-3030 -13 c4 -5 -24 -19 -61 -32 -38 -12 -74 -24 -82
-27 -8 -3 -12 0 -9 8 2 7 31 23 63 35 69 26 82 28 89 16z m226 -97 c0 -95 -2
-105 -17 -102 -15 3 -18 17 -21 92 -3 99 0 116 23 116 12 0 15 -17 15 -106z
m-50 9 l0 -88 -60 65 c-32 36 -59 67 -60 70 0 4 89 35 113 39 4 0 7 -38 7 -86z
m1450 -183 l0 -270 -100 0 -100 0 0 263 c0 145 3 267 7 270 3 4 48 7 100 7
l93 0 0 -270z m192 213 l1 -58 7 55 c4 31 7 -59 8 -206 l2 -260 -42 -2 c-24
-1 -69 -5 -100 -8 l-58 -6 0 271 0 271 90 0 90 0 2 -57z m1309 45 c22 -6 39
-14 39 -17 -1 -3 -25 -33 -55 -66 l-55 -60 0 78 c0 86 1 87 71 65z m-1711
-263 l0 -265 -34 0 c-18 0 -61 -3 -95 -6 l-61 -7 0 266 0 266 33 4 c17 2 60 5
95 5 l62 2 0 -265z m574 259 c14 -5 16 -38 16 -260 l0 -254 -80 0 -80 0 0 260
0 260 64 0 c35 0 71 -3 80 -6z m-1969 -14 c-3 -5 -14 -10 -23 -10 -15 0 -15 2
-2 10 20 13 33 13 25 0z m1185 -255 l0 -265 -90 0 -90 0 0 250 0 249 33 6 c17
3 57 9 87 14 30 5 56 9 58 10 1 0 2 -118 2 -264z m830 15 c0 -160 -4 -250 -10
-250 -6 0 -10 90 -10 250 0 160 4 250 10 250 6 0 10 -90 10 -250z m130 234
l40 -6 0 -239 0 -239 -64 0 c-35 0 -71 -3 -80 -6 -14 -6 -16 21 -16 251 l0
257 40 -6 c22 -3 58 -9 80 -12z m378 -5 c45 -11 52 -15 52 -36 0 -21 -3 -23
-27 -16 -117 29 -118 29 -121 53 -3 20 -1 22 20 17 12 -4 47 -12 76 -18z
m-1748 -13 c0 -20 -8 -25 -67 -41 -38 -10 -74 -20 -81 -23 -10 -3 -13 2 -10
19 2 20 14 27 78 46 41 12 76 22 78 22 1 1 2 -10 2 -23z m17 -8 c-3 -7 -5 -2
-5 12 0 14 2 19 5 13 2 -7 2 -19 0 -25z m-882 2 c-27 -11 -54 -18 -60 -17 -11
4 72 35 95 36 8 0 -7 -9 -35 -19z m2306 6 c6 3 53 -2 105 -12 l94 -18 0 -218
0 -218 -110 0 -110 0 1 243 c0 133 3 236 6 229 2 -6 9 -9 14 -6z m893 -71
c-51 -58 -88 -86 -68 -52 20 34 119 138 122 128 2 -6 -22 -40 -54 -76z m114
-33 c1 -62 0 -112 -3 -112 -4 0 -15 5 -26 10 -16 9 -19 22 -19 96 0 86 12 128
33 121 8 -2 13 -40 15 -115z m-3413 98 c3 -5 -1 -10 -9 -10 -9 0 -16 5 -16 10
0 6 4 10 9 10 6 0 13 -4 16 -10z m195 -103 c0 -63 -3 -117 -7 -120 -3 -4 -12
-2 -20 4 -9 8 -13 40 -13 114 0 103 3 115 27 115 10 0 13 -26 13 -113z m84 38
c36 -42 66 -79 66 -84 0 -7 -116 -61 -132 -61 -5 0 -8 50 -8 110 0 61 2 110 4
110 3 0 34 -34 70 -75z m894 -421 c-2 -1 -41 -4 -88 -6 l-85 -3 0 230 0 230
85 21 85 22 3 -246 c1 -135 1 -246 0 -248z m2366 456 c8 -8 -96 -140 -110
-140 -2 0 -4 40 -4 89 l0 90 53 -15 c28 -9 56 -20 61 -24z m-3581 11 c-19 -17
-724 -313 -730 -307 -3 3 -4 8 -1 11 14 14 723 313 731 308 5 -3 5 -8 0 -12z
m2841 13 c9 -3 16 -15 16 -26 0 -28 -34 -19 -38 10 -4 24 -2 25 22 16z m-2654
-91 l0 -88 -50 75 -50 75 33 12 c66 24 67 22 67 -74z m2769 57 c33 -9 41 -15
41 -34 l0 -24 -65 21 c-55 18 -65 25 -65 44 0 20 3 21 24 13 13 -4 42 -14 65
-20z m-2940 -3 c-13 -11 -140 -59 -144 -55 -6 5 138 67 144 62 2 -2 2 -5 0 -7z
m791 -10 c0 -20 -11 -26 -80 -49 l-80 -26 0 23 c0 20 10 27 73 48 90 32 87 32
87 4z m17 -9 c-3 -7 -5 -2 -5 12 0 14 2 19 5 13 2 -7 2 -19 0 -25z m1931 11
l52 -12 0 -199 0 -198 -75 0 -75 0 0 216 0 216 23 -6 c12 -3 46 -11 75 -17z
m639 -125 c-2 -3 -25 5 -51 16 l-48 20 49 57 48 56 3 -73 c2 -40 1 -74 -1 -76z
m-3209 -60 c-2 -11 -27 18 -70 84 -42 63 -63 102 -55 105 16 5 130 -166 125
-189z m822 -34 l0 -230 -80 0 -80 0 2 208 3 207 75 22 c41 12 76 22 78 22 1 1
2 -102 2 -229z m17 -117 c-1 -65 -3 -12 -3 117 0 129 2 182 3 118 2 -65 2
-171 0 -235z m2603 341 c0 -9 -144 -174 -152 -174 -5 0 -8 3 -8 8 0 12 107
134 116 132 4 -1 11 8 16 19 7 19 28 30 28 15z m266 -27 c43 -19 80 -39 82
-46 3 -8 -7 -7 -34 4 -22 9 -63 26 -91 37 -29 12 -53 25 -53 29 0 14 14 11 96
-24z m-225 -9 c2 -31 2 -32 6 -5 4 23 8 27 25 21 53 -16 88 -35 88 -47 0 -6
-25 -40 -55 -75 l-54 -62 -4 67 -3 68 -2 -76 c-2 -59 -6 -80 -20 -92 -17 -16
-23 -15 -85 15 -37 18 -66 35 -65 39 6 16 151 179 159 179 5 0 10 -15 10 -32z
m-3631 -113 c0 -74 -4 -135 -8 -135 -10 0 -142 195 -142 208 0 9 114 59 138
61 9 1 12 -32 12 -134z m3004 129 c9 -3 16 -17 16 -30 0 -20 -3 -22 -22 -15
-13 4 -24 18 -26 30 -3 22 5 25 32 15z m-200 -10 c14 -5 16 -32 16 -195 0
-182 -1 -189 -20 -189 -19 0 -20 7 -20 195 0 107 2 195 4 195 2 0 11 -3 20 -6z
m-2703 -195 c-16 -9 -43 -25 -60 -33 l-31 -17 0 123 0 123 60 -89 59 -90 -28
-17z m2818 161 l41 -11 0 -175 0 -175 -65 2 -65 2 0 193 0 194 24 -10 c13 -4
42 -14 65 -20z m189 6 c43 -15 52 -22 52 -41 l0 -24 -62 23 c-49 18 -64 29
-66 46 -3 16 0 21 10 18 7 -3 37 -13 66 -22z m742 -7 c41 -17 79 -35 85 -41 8
-7 -43 12 -160 62 -11 5 -15 9 -10 9 6 1 44 -13 85 -30z m-3260 -4 c0 -14 -4
-25 -10 -25 -11 0 -14 33 -3 43 11 11 13 8 13 -18z m-30 -8 c0 -22 -10 -27
-133 -73 -15 -6 -18 -3 -15 17 2 19 17 29 73 51 39 15 71 27 73 28 1 0 2 -10
2 -23z m210 -177 l0 -200 -27 0 c-16 0 -52 -3 -80 -6 l-53 -7 0 181 0 180 73
25 c39 14 75 26 80 26 4 1 7 -89 7 -199z m17 -102 c-1 -57 -3 -11 -3 102 0
113 2 159 3 103 2 -57 2 -149 0 -205z m2996 260 c-10 -11 -19 -15 -21 -8 -5
15 18 41 30 34 5 -3 1 -15 -9 -26z m-4008 12 c-3 -5 -11 -10 -16 -10 -6 0 -7
5 -4 10 3 6 11 10 16 10 6 0 7 -4 4 -10z m4321 -46 c141 -62 140 -61 131 -70
-8 -8 -277 108 -277 118 0 14 15 9 146 -48z m-4192 -60 c62 -96 75 -127 46
-109 -18 11 -130 183 -130 200 0 30 16 13 84 -91z m3107 96 c5 0 9 -71 9 -165
l0 -165 -25 0 -25 0 0 171 c0 152 2 170 16 165 9 -3 20 -6 25 -6z m190 0 c17
-10 28 -50 13 -50 -18 0 -44 24 -44 40 0 23 4 24 31 10z m683 -15 c31 -14 56
-31 56 -39 0 -7 -22 -44 -50 -81 l-49 -69 -4 105 -3 104 -2 -108 c-2 -92 -5
-113 -23 -138 -35 -50 -49 -24 -49 91 0 91 2 101 26 129 14 17 29 31 34 31 4
0 33 -11 64 -25z m-4145 11 c-11 -11 -119 -54 -119 -47 0 8 87 48 109 50 8 1
12 -1 10 -3z m71 -163 c0 -107 -3 -133 -14 -133 -33 0 -46 46 -46 164 0 99 2
116 18 125 33 19 42 -13 42 -156z m3298 133 l52 -18 0 -139 0 -139 -65 0 -65
0 0 161 c0 125 3 160 13 157 6 -3 36 -13 65 -22z m-2518 -162 c0 -114 -3 -173
-10 -169 -6 4 -10 71 -10 169 0 143 3 176 17 176 2 0 3 -79 3 -176z m2714 151
c41 -18 56 -30 56 -45 0 -25 -1 -25 -71 6 -41 19 -59 32 -59 45 0 24 6 24 74
-6z m446 16 c0 -9 -98 -131 -106 -131 -15 0 3 35 44 83 46 54 62 67 62 48z
m346 -47 c127 -56 161 -73 116 -59 -39 12 -268 114 -256 115 6 0 69 -25 140
-56z m-4356 -56 c0 -56 -2 -99 -3 -97 -2 2 -27 39 -56 82 l-52 77 43 20 c69
30 68 31 68 -82z m660 82 c0 -11 -2 -20 -4 -20 -2 0 -11 -3 -20 -6 -11 -4 -16
0 -16 13 0 23 8 33 27 33 7 0 13 -9 13 -20z m160 -150 l0 -170 -75 0 -76 0 3
142 3 142 70 27 c39 15 71 28 73 28 1 1 2 -75 2 -169z m-210 136 c0 -19 -12
-28 -70 -54 l-70 -31 0 23 c0 19 13 29 68 54 37 17 68 31 70 31 1 1 2 -10 2
-23z m3621 -32 c-16 -20 -21 -23 -21 -10 0 29 21 59 32 48 7 -7 4 -19 -11 -38z
m-4087 -48 c25 -39 46 -72 46 -75 0 -6 -94 -61 -104 -61 -3 0 -6 50 -6 112 0
66 4 108 9 103 5 -6 30 -41 55 -79z m3317 74 c17 -10 19 -22 19 -139 l0 -128
-25 5 -25 4 0 134 c0 74 3 134 6 134 3 0 14 -5 25 -10z m-3642 -13 c-17 -13
-132 -58 -140 -55 -6 2 22 17 63 34 40 17 75 30 77 28 2 -2 2 -5 0 -7z m4187
-154 c-6 -6 -96 45 -96 53 0 3 21 30 48 60 l47 55 3 -81 c2 -46 1 -85 -2 -87z
m328 141 c31 -14 56 -28 56 -30 0 -3 -19 -33 -42 -67 l-43 -62 -6 85 -5 85 -2
-98 c-2 -87 -5 -102 -28 -137 -44 -67 -54 -55 -54 66 0 103 1 107 31 145 17
21 32 39 34 39 1 0 28 -12 59 -26z m926 16 c0 -5 -12 -10 -26 -10 -14 0 -23 4
-19 10 3 6 15 10 26 10 10 0 19 -4 19 -10z m-5390 -16 c0 -8 -4 -12 -10 -9 -5
3 -10 10 -10 16 0 5 5 9 10 9 6 0 10 -7 10 -16z m3791 6 c17 -10 28 -50 13
-50 -18 0 -44 24 -44 40 0 23 4 24 31 10z m-4816 -10 c4 -6 -7 -10 -25 -10
-18 0 -29 4 -25 10 3 6 15 10 25 10 10 0 22 -4 25 -10z m1100 -81 c48 -73 67
-119 50 -119 -13 0 -115 168 -115 189 0 30 -2 32 65 -70z m3619 65 l56 -25 0
-100 0 -100 -62 3 -63 3 -3 123 c-1 68 1 122 6 122 5 0 35 -12 66 -26z m-3710
-6 c12 -17 16 -50 16 -145 0 -114 -1 -123 -19 -123 -38 0 -51 41 -51 163 0 63
3 117 7 120 12 13 32 7 47 -15z m806 -113 c0 -128 -1 -135 -20 -135 -19 0 -20
7 -20 128 0 130 2 142 27 142 10 0 13 -29 13 -135z m3540 117 c0 -27 -94 -150
-98 -129 -3 14 83 147 95 147 2 0 3 -8 3 -18z m432 -39 c32 -14 58 -30 58 -34
0 -13 -8 -11 -99 29 -47 21 -86 43 -89 50 -4 14 12 8 130 -45z m-5636 -23 c8
-20 3 -523 -5 -625 -3 -44 -6 96 -6 310 0 215 1 377 3 360 2 -16 5 -37 8 -45z
m1464 50 c0 -10 -9 -24 -20 -30 -17 -9 -20 -8 -20 14 0 15 7 26 18 29 9 3 18
5 20 6 1 0 2 -8 2 -19z m148 -235 c-2 -1 -33 -5 -70 -9 l-68 -7 0 104 0 104
68 30 67 29 3 -124 c1 -69 1 -126 0 -127z m3187 207 c68 -35 91 -53 93 -69 3
-21 -3 -20 -97 27 -77 38 -101 55 -101 70 0 11 3 20 8 20 4 -1 48 -22 97 -48z
m-4005 -64 l0 -103 -50 75 c-27 41 -50 80 -50 86 0 11 62 41 88 43 9 1 12 -26
12 -101z m4664 73 c3 -3 -9 -24 -25 -45 l-29 -40 0 46 c0 24 3 47 6 50 6 7 43
-2 48 -11z m-4044 -9 c0 -12 -23 -30 -70 -56 -70 -37 -70 -37 -70 -14 0 19 12
30 63 55 74 38 77 38 77 15z m4268 -62 c33 -19 4 -9 -79 26 -46 20 -88 41 -94
46 -10 9 142 -53 173 -72z m-1017 60 c16 -9 19 -22 19 -95 0 -84 0 -85 -25
-85 -25 0 -25 0 -25 95 0 52 3 95 6 95 3 0 14 -5 25 -10z m229 -6 c0 -8 -5
-12 -10 -9 -6 4 -8 11 -5 16 9 14 15 11 15 -7z m598 -96 c-3 -111 -7 -118 -64
-104 -21 6 -24 12 -24 54 0 38 7 58 35 100 20 28 40 52 46 52 6 0 9 -38 7
-102z m591 -342 c0 -132 -1 -237 -3 -235 -2 2 -5 157 -8 344 -2 187 -1 293 3
235 3 -58 7 -213 8 -344z m-5509 415 c-19 -10 -46 -21 -60 -25 -14 -3 -2 5 25
18 58 29 87 34 35 7z m104 3 c11 -28 6 -39 -9 -20 -8 11 -15 23 -15 28 0 14
18 9 24 -8z m265 -62 c28 -43 51 -81 51 -85 0 -10 -78 -57 -95 -57 -12 0 -15
18 -15 110 0 61 2 110 4 110 2 0 27 -35 55 -78z m4258 -98 c-9 -10 -97 48 -90
59 4 7 25 36 47 66 l41 55 3 -88 c2 -49 1 -90 -1 -92z m157 42 c-20 -31 -41
-56 -45 -56 -5 0 -9 16 -9 36 0 25 12 53 43 97 l42 62 3 -42 c3 -34 -3 -52
-34 -97z m222 104 c13 0 -1 -33 -36 -85 l-40 -60 0 88 0 87 36 -15 c20 -8 38
-15 40 -15z m-5106 6 c0 -8 -14 -19 -31 -25 -39 -13 -39 -13 -39 -1 0 8 38 29
68 39 1 1 2 -5 2 -13z m185 -25 c23 -33 26 -47 23 -107 l-3 -69 -32 -3 -33 -3
0 104 c0 91 4 117 17 117 1 0 14 -17 28 -39z m801 -148 c-3 -7 -12 -13 -21
-13 -24 0 -22 175 3 189 15 9 17 2 20 -76 2 -48 1 -92 -2 -100z m3339 139 c88
-46 90 -48 93 -86 l3 -39 -47 7 c-26 3 -71 6 -100 6 l-54 0 0 80 c0 44 3 80 8
80 4 -1 48 -22 97 -48z m1013 5 c65 -19 94 -37 58 -37 -33 0 -166 49 -166 62
0 6 8 7 18 3 9 -3 50 -16 90 -28z m-5210 -74 c-2 -64 -7 -98 -15 -100 -7 -3
-27 24 -45 59 -53 101 -52 95 -5 117 69 32 68 32 65 -76z m190 -75 c-6 -17
-98 121 -98 147 0 13 19 -8 51 -57 28 -42 49 -83 47 -90z m622 77 l0 -85 -70
0 -70 0 0 53 0 53 63 31 c34 18 65 32 70 32 4 1 7 -37 7 -84z m3598 5 c4 -26
0 -25 -59 8 -36 20 -49 33 -49 50 0 22 0 22 53 -7 31 -19 53 -38 55 -51z
m-4620 58 c-5 -15 -157 -80 -169 -72 -5 3 -9 10 -9 16 0 6 3 9 6 6 3 -3 40 9
82 28 85 37 96 40 90 22z m872 -6 c0 -10 -12 -25 -27 -33 -16 -8 -53 -29 -83
-46 -64 -38 -70 -39 -70 -14 0 14 23 33 78 65 87 50 102 54 102 28z m-800 4
c0 -2 -7 -7 -16 -10 -8 -3 -12 -2 -9 4 6 10 25 14 25 6z m5194 -4 c3 -5 -10
-33 -29 -63 l-34 -54 -1 38 c0 57 44 111 64 79z m147 -23 c38 -12 68 -23 65
-26 -6 -6 -166 46 -166 54 0 3 7 2 15 -1 9 -3 47 -15 86 -27z m-5331 -26 l-1
-38 -13 30 c-9 21 -10 32 -2 37 16 11 16 11 16 -29z m4620 15 c0 -16 -3 -19
-11 -11 -6 6 -8 16 -5 22 11 17 16 13 16 -11z m600 -38 l0 -60 -45 0 -45 0 37
60 c21 33 41 60 45 60 5 0 8 -27 8 -60z m-5300 45 c0 -7 -93 -46 -98 -40 -3 2
15 14 39 25 45 20 59 24 59 15z m5159 -54 c-18 -28 -36 -51 -41 -51 -4 0 8 25
28 55 46 69 56 66 13 -4z m196 47 c30 -14 32 -32 5 -75 -29 -48 -50 -35 -50
33 0 57 4 61 45 42z m514 -2 c6 -7 14 -35 18 -62 3 -27 11 -52 17 -56 6 -4
-16 -8 -49 -8 -35 0 -55 4 -47 8 9 6 11 21 6 49 -10 63 24 106 55 69z m-5811
-41 c32 -67 30 -85 -13 -85 l-35 0 0 58 c0 87 15 95 48 27z m286 -20 l36 -55
-40 0 -40 0 0 55 c0 30 2 55 4 55 2 0 20 -25 40 -55z m524 -40 c-6 -5 -168
-10 -168 -5 0 3 26 18 58 35 31 16 68 38 82 48 l25 19 3 -47 c2 -26 2 -48 0
-50z m3752 29 c0 -2 -25 -4 -55 -4 l-55 0 0 34 0 34 55 -30 c30 -16 55 -31 55
-34z m80 14 c0 -10 -6 -18 -13 -18 -22 0 -57 31 -57 50 0 19 1 19 35 3 21 -10
35 -24 35 -35z m-5240 22 c6 -12 10 -35 8 -53 -2 -26 -8 -33 -33 -38 l-30 -7
32 -1 c58 -2 48 -21 -11 -21 -31 0 -56 5 -56 10 0 6 5 10 10 10 6 0 10 15 10
34 0 75 43 116 70 66z m540 -35 l0 -55 -33 0 c-28 0 -36 5 -50 35 l-17 35 38
19 c57 31 62 28 62 -34z m160 -52 c0 -1 -11 -3 -24 -3 -28 0 -36 16 -36 73 l0
42 30 -54 c17 -30 30 -56 30 -58z m472 75 c-9 -9 -12 -7 -12 12 0 19 3 21 12
12 9 -9 9 -15 0 -24z m4368 -3 c0 -31 -3 -35 -25 -35 -14 0 -25 3 -25 6 0 8
40 64 46 64 2 0 4 -16 4 -35z m444 25 c26 -9 26 -10 9 -45 -12 -25 -23 -35
-40 -35 -19 0 -23 5 -23 29 0 35 9 61 20 61 5 0 20 -4 34 -10z m-254 -35 c0
-29 -4 -35 -21 -35 -11 0 -19 3 -17 8 21 42 32 62 35 62 1 0 3 -16 3 -35z
m-5301 21 c-15 -13 -49 -25 -49 -17 0 5 8 12 18 14 24 6 36 8 31 3z m5011 -21
c0 -16 -6 -25 -15 -25 -18 0 -19 4 -3 30 16 26 18 25 18 -5z m-4220 -8 c0 -16
-9 -28 -25 -35 -34 -16 -35 -15 -35 8 0 15 36 46 58 50 1 0 2 -11 2 -23z
m4077 -13 c-8 -8 -47 10 -47 22 0 12 5 11 25 -2 14 -9 24 -18 22 -20z m733 6
c0 -20 -5 -30 -15 -30 -18 0 -19 14 -5 41 15 27 20 24 20 -11z m-5600 -20 c0
-35 -25 -42 -35 -10 -8 24 1 40 21 40 9 0 14 -11 14 -30z m-46 -32 c-12 -19
-24 -5 -24 25 l1 32 13 -25 c8 -14 12 -28 10 -32z m5533 30 c-3 -8 -6 -5 -6 6
-1 11 2 17 5 13 3 -3 4 -12 1 -19z m-4767 -3 c0 -9 -9 -15 -22 -15 -22 1 -23
1 -4 15 25 19 26 19 26 0z m-695 -15 c3 -5 1 -10 -4 -10 -6 0 -11 5 -11 10 0
6 2 10 4 10 3 0 8 -4 11 -10z m5031 -78 c53 -35 318 -237 481 -367 43 -34 63
-57 63 -72 0 -18 -41 9 -232 159 -128 99 -273 208 -323 241 -114 76 -115 77
-79 77 19 0 54 -15 90 -38z m51 24 c3 -2 3 -12 1 -20 -2 -13 -8 -12 -33 9
l-30 25 29 -5 c16 -2 31 -6 33 -9z m33 -16 c-6 -11 -13 -20 -15 -20 -3 0 -5 9
-5 20 0 11 7 20 15 20 13 0 14 -4 5 -20z m35 -9 c-16 -32 -35 -49 -35 -31 0
15 31 60 41 60 5 0 3 -13 -6 -29z m69 4 c-9 -14 -18 -25 -20 -25 -2 0 -4 11
-4 25 0 18 5 25 20 25 20 0 20 -1 4 -25z m56 -65 c0 -99 -1 -100 -57 -51 -30
25 -29 40 5 95 42 70 52 61 52 -44z m104 65 c-1 -11 -18 -55 -37 -97 -43 -93
-35 -105 10 -15 l32 62 0 -87 c1 -48 -3 -89 -7 -92 -4 -2 -27 10 -50 27 l-41
32 -1 98 0 98 48 -3 c40 -3 47 -6 46 -23z m-203 -68 c-7 -7 -15 -6 -25 2 -13
11 -12 17 7 47 l22 33 3 -36 c2 -19 -1 -40 -7 -46z m289 54 c0 -15 -16 -62
-35 -102 l-34 -74 -1 87 c0 106 4 118 41 118 25 0 29 -4 29 -29z m110 -171 c0
-110 -3 -200 -6 -200 -4 0 -27 16 -50 36 l-44 35 0 128 c0 162 13 201 65 201
l35 0 0 -200z m36 158 c-12 -71 -25 -80 -26 -15 0 46 3 57 16 57 14 0 15 -7
10 -42z m-5136 27 c0 -2 -20 -18 -45 -35 l-45 -31 0 30 c0 26 4 30 33 34 17 2
38 5 45 5 6 1 12 0 12 -3z m119 2 c-2 -2 -50 -33 -106 -70 -94 -61 -103 -65
-103 -44 0 32 130 117 179 117 19 0 32 -1 30 -3z m-430 -119 l0 -113 -35 70
c-35 71 -45 139 -21 148 6 3 22 6 35 6 22 1 22 -1 21 -111z m89 46 c18 -36 30
-68 28 -72 -2 -4 -25 -22 -50 -40 l-46 -33 0 105 c0 95 2 106 18 106 12 0 28
-21 50 -66z m38 42 c3 -13 4 -37 2 -52 -3 -28 -5 -27 -31 24 l-27 52 25 0 c18
0 26 -7 31 -24z m84 -10 c0 -18 -6 -39 -14 -46 -12 -9 -18 -4 -35 29 -12 22
-21 43 -21 46 0 3 16 5 35 5 33 0 35 -2 35 -34z m-483 -76 c1 -63 -1 -85 -7
-65 -4 17 -15 57 -24 90 -20 76 -20 77 7 73 21 -3 22 -8 24 -98z m79 89 c6
-11 -25 -93 -33 -85 -3 2 -11 25 -18 50 l-14 46 29 0 c16 0 32 -5 36 -11z m92
-31 c18 -35 22 -59 22 -123 l-1 -80 -49 119 c-28 65 -50 120 -50 122 0 2 12 4
28 4 22 0 31 -8 50 -42z m22 20 c0 -19 -2 -20 -10 -8 -13 19 -13 30 0 30 6 0
10 -10 10 -22z m238 -44 c9 -17 8 -25 -3 -34 -13 -11 -15 -7 -15 25 0 41 1 42
18 9z m-283 -109 l46 -108 -33 -29 c-71 -61 -68 -66 -68 103 0 84 2 150 5 147
3 -2 25 -53 50 -113z m-116 52 c1 -10 -3 -15 -9 -12 -5 3 -10 21 -9 38 0 27 2
29 9 12 5 -11 9 -28 9 -38z m5541 -58 l0 -110 -31 22 c-17 12 -33 28 -36 35
-4 12 56 164 65 164 1 0 2 -50 2 -111z m-5490 71 c0 -20 -5 -30 -15 -30 -18 0
-18 2 -3 35 15 32 18 32 18 -5z m400 1 c0 -13 -30 -42 -82 -83 -111 -85 -110
-85 -106 -57 2 15 33 47 88 90 47 37 88 68 93 68 4 1 7 -8 7 -18z m-233 -129
c-6 -7 -19 -18 -29 -23 -17 -9 -18 -4 -18 68 l1 78 28 -55 c22 -41 26 -58 18
-68z m-183 82 c21 -8 20 -43 -3 -77 l-19 -29 -16 48 c-9 26 -16 51 -16 56 0 9
31 11 54 2z m-35 -121 c1 -7 -3 -13 -9 -13 -5 0 -10 15 -9 33 0 27 2 29 9 12
5 -11 9 -26 9 -32z m51 7 c0 -20 -5 -30 -15 -30 -18 0 -18 2 -3 35 15 32 18
32 18 -5z m159 -44 c-31 -27 -34 -28 -38 -11 -2 13 9 29 30 48 30 24 34 26 38
10 2 -10 -10 -29 -30 -47z m-175 -2 c9 -3 16 -17 16 -30 0 -21 -5 -24 -35 -24
-32 0 -35 2 -35 30 0 31 17 38 54 24z m94 -66 c-56 -48 -68 -52 -67 -26 0 15
16 35 47 59 44 33 47 34 50 15 3 -13 -7 -30 -30 -48z m-78 -28 c0 -28 -3 -30
-35 -30 -32 0 -35 2 -35 30 0 28 3 30 35 30 32 0 35 -2 35 -30z"/>
<path d="M4814 3300 c0 -58 1 -81 3 -52 2 28 2 76 0 105 -2 28 -3 5 -3 -53z"/>
</g>
</svg>
