<?xml version="1.0" encoding="utf-8"?>
<svg version="1.1" id="Ebene_1" xmlns="http://www.w3.org/2000/svg"
	xmlns:xlink="http://www.w3.org/1999/xlink" x="0px" y="0px"
	viewBox="0 0 472 99" style="enable-background:new 0 0 472 99;" xml:space="preserve">
<style type="text/css">
	.st0{fill:#E52148;}
	.st1{fill:#FFFFFF;}
	.st2{fill:#FDC300;}
	.st3{fill:#E84A43;}
</style>
<g>
	<polygon class="st0" points="148.6,40.5 138.9,56.8 121.3,27.4 143.6,27.4 150,38.2 	"/>
	<polygon points="164.1,61.7 152.9,80.3 141.8,61.7 152.9,43.1 	"/>
	<polygon class="st1" points="184.6,96 162.3,96 155.9,85.2 157.2,82.9 167,66.5 	"/>
	<polygon class="st2" points="148.6,82.9 150,85.2 143.6,96 121.3,96 138.9,66.5 	"/>
	<polygon points="164.1,61.7 152.9,80.3 141.8,61.7 152.9,43.1 	"/>
	<polygon class="st1" points="184.6,27.4 167,56.8 157.2,40.5 155.9,38.2 162.3,27.4 	"/>
	<g>
		<g>
			<polygon points="164.1,61.7 152.9,80.3 141.8,61.7 152.9,43.1 			"/>
		</g>
		<g>
			<polygon class="st3" points="164.1,61.7 152.9,80.3 141.8,61.7 152.9,43.1 			"/>
		</g>
	</g>
	<path class="st1" d="M35.9,26c-7.4,0-13.2,3.1-16.7,7.6l-1.1-6.2H0.9V96h19.6V53.1c0-5.9,3.6-10.1,9.4-10.1s8.8,4.2,8.8,10.1V96
		h19.6V51.7C58.3,36.9,51.5,26,35.9,26z M85.5,67.6v3.9c0,6,3.7,10.4,9.4,10.4c5,0,8-3.2,8.5-8.1H122c-0.7,14.5-11.7,23.6-27.4,23.6
		c-16.8,0-28.3-10.9-28.3-28V54c0-17.1,11.5-28,28.3-28c16.2,0,27.4,10.9,27.4,28v13.6H85.5z M103.4,54.6v-3
		c0-5.9-3.4-10.1-8.8-10.1c-5.7,0-9.1,4.2-9.1,10.1v3C85.5,54.6,103.4,54.6,103.4,54.6z M122.1,72.2v1.6h0
		C122.1,73.2,122.1,72.7,122.1,72.2z M237.5,1.2V96h19.6V1.2H237.5z M451.5,1.2V96h19.6V1.2H451.5z M229.5,27.4V45h-10v51h-19.6V45
		h-10V27.4h10V9.2h19.6v18.2C219.5,27.4,229.5,27.4,229.5,27.4z M284.3,67.6v3.9c0,6,3.6,10.4,9.4,10.4c5,0,8-3.2,8.5-8.1h18.6
		c-0.7,14.5-11.7,23.6-27.4,23.6c-16.8,0-28.3-10.9-28.3-28V54c0-17.1,11.5-28,28.3-28c16.2,0,27.4,10.9,27.4,28v13.6H284.3z
		 M302.2,54.6v-3c0-5.9-3.4-10.1-8.8-10.1c-5.7,0-9.1,4.2-9.1,10.1v3C284.3,54.6,302.2,54.6,302.2,54.6z M406.9,67.6v3.9
		c0,6,3.6,10.4,9.4,10.4c5,0,8-3.2,8.5-8.1h18.6c-0.7,14.5-11.7,23.6-27.4,23.6c-16.8,0-28.3-10.9-28.3-28V54
		c0-17.1,11.5-28,28.3-28c16.2,0,27.4,10.9,27.4,28v13.6H406.9z M424.8,54.6v-3c0-5.9-3.4-10.1-8.8-10.1c-5.7,0-9.1,4.2-9.1,10.1v3
		C406.9,54.6,424.8,54.6,424.8,54.6z M443.5,72.2v1.6h0C443.4,73.2,443.5,72.7,443.5,72.2z M385.9,27.4l-20,68.6h-23.2l-20-68.6
		h19.3l12.4,42.4l12.4-42.4C366.6,27.4,385.9,27.4,385.9,27.4z"/>
</g>
</svg>